<svg width="12" height="12" viewBox="0 0 12 12" fill="none" xmlns="http://www.w3.org/2000/svg">
<path d="M1.00795 10.992C0.926327 10.9109 0.861522 10.8144 0.817255 10.7081C0.772858 10.6015 0.75 10.4872 0.75 10.3718C0.75 10.2563 0.772858 10.142 0.817255 10.0354C0.861605 9.92895 0.926572 9.83231 1.00841 9.75106C1.0085 9.75097 1.00859 9.75089 1.00868 9.7508L4.76557 5.99947L1.00809 2.24755L1.00795 2.24741C0.843468 2.08291 0.751066 1.8598 0.751066 1.62717C0.751066 1.39454 0.843468 1.17143 1.00795 1.00693C1.17244 0.842422 1.39554 0.75 1.62817 0.75C1.8608 0.75 2.0839 0.842422 2.24838 1.00693L2.24852 1.00707L6 4.76491L9.75148 1.00707L9.75162 1.00693C9.9161 0.842422 10.1392 0.75 10.3718 0.75C10.6045 0.75 10.8276 0.842422 10.992 1.00693C11.1565 1.17143 11.2489 1.39454 11.2489 1.62717C11.2489 1.8598 11.1565 2.08291 10.992 2.24741L10.9919 2.24755L7.23443 5.99947L10.9913 9.7508C10.9914 9.75091 10.9915 9.75102 10.9917 9.75113C11.0735 9.83237 11.1384 9.92898 11.1827 10.0354C11.2271 10.142 11.25 10.2563 11.25 10.3718C11.25 10.4872 11.2271 10.6015 11.1827 10.7081C11.1385 10.8144 11.0737 10.9108 10.9921 10.992C10.9109 11.0736 10.8144 11.1385 10.7082 11.1827C10.6016 11.2271 10.4873 11.25 10.3718 11.25C10.2564 11.25 10.1421 11.2271 10.0355 11.1827C9.92913 11.1384 9.83257 11.0735 9.75138 10.9918C9.75122 10.9916 9.75105 10.9914 9.75089 10.9913L6 7.23403L2.24911 10.9913C2.24896 10.9914 2.24882 10.9916 2.24867 10.9917C2.16746 11.0735 2.07089 11.1384 1.96451 11.1827C1.85793 11.2271 1.74362 11.25 1.62817 11.25C1.51272 11.25 1.3984 11.2271 1.29183 11.1827C1.18557 11.1385 1.0891 11.0736 1.00795 10.992ZM1.00795 10.992C1.00771 10.9918 1.00747 10.9915 1.00723 10.9913L1.18474 10.8152L1.00868 10.9927C1.00844 10.9925 1.00819 10.9922 1.00795 10.992Z" fill="#F46363" stroke="#F46363" stroke-width="0.5"/>
</svg>
