<svg width="24" height="24" viewBox="0 0 24 24" fill="none" xmlns="http://www.w3.org/2000/svg">
<path fill-rule="evenodd" clip-rule="evenodd" d="M12.1921 17.25C15.802 17.25 18.369 14.9817 19.8723 13.0926C20.3937 12.4374 20.3937 11.5627 19.8723 10.9074C18.369 9.01834 15.802 6.75 12.1921 6.75C8.58233 6.75 6.01533 9.01834 4.51203 10.9074C3.99062 11.5627 3.99062 12.4374 4.51203 13.0926C6.01533 14.9817 8.58233 17.25 12.1921 17.25ZM21.2416 14.1823C22.2706 12.8892 22.2706 11.1108 21.2416 9.81776C19.6069 7.76348 16.5904 5 12.1921 5C7.79392 5 4.77744 7.76348 3.14269 9.81776C2.11373 11.1108 2.11373 12.8892 3.14269 14.1823C4.77744 16.2365 7.79392 19 12.1921 19C16.5904 19 19.6069 16.2365 21.2416 14.1823Z" fill="#8F95B2"/>
<path fill-rule="evenodd" clip-rule="evenodd" d="M13.9421 12C13.9421 12.9665 13.1586 13.75 12.1921 13.75C11.2256 13.75 10.4421 12.9665 10.4421 12C10.4421 11.9752 10.4427 11.9505 10.4437 11.9259C10.5801 11.9739 10.7268 12 10.8796 12C11.6045 12 12.1921 11.4124 12.1921 10.6875C12.1921 10.5347 12.166 10.3879 12.118 10.2515C12.1426 10.2505 12.1673 10.25 12.1921 10.25C13.1586 10.25 13.9421 11.0335 13.9421 12ZM15.6922 12C15.6922 13.933 14.1251 15.5 12.1921 15.5C10.2591 15.5 8.69214 13.933 8.69214 12C8.69214 10.067 10.2591 8.5 12.1921 8.5C14.1251 8.5 15.6922 10.067 15.6922 12Z" fill="#8F95B2"/>
</svg>