<svg width="30" height="30" viewBox="0 0 30 30" fill="none" xmlns="http://www.w3.org/2000/svg">
<path d="M14.6653 11.4925L14.7382 11.6138H14.8797H19.5456C20.4145 11.6138 21.2403 11.6642 21.9513 11.731C22.4236 11.7754 22.7704 12.1222 22.8148 12.5944C22.8816 13.3055 22.9319 14.1313 22.9319 15.0002C22.9319 16.6057 22.8735 18.0358 22.7992 19.2041C22.7377 20.1722 22.0088 20.8986 21.0314 20.955C19.5391 21.041 17.5287 21.1139 15.0001 21.1139C12.4714 21.1139 10.461 21.041 8.96877 20.955C7.99132 20.8986 7.26247 20.1722 7.20093 19.2041C7.12667 18.0358 7.06819 16.6057 7.06819 15.0002C7.06819 12.7176 7.14951 11.0203 7.24029 9.83681C7.2767 9.36217 7.6053 9.03466 8.05602 8.99029C8.67215 8.92964 9.34376 8.88655 10 8.88655C10.945 8.88655 11.9145 8.97575 12.6951 9.07527C13.0207 9.11676 13.365 9.3252 13.5997 9.71637L14.6653 11.4925ZM16.0507 9.29565L15.5875 8.52367C15.0251 7.58631 14.0882 6.91589 12.9883 6.77568C12.1518 6.66905 11.0774 6.56836 10 6.56836C9.24779 6.56836 8.4974 6.61744 7.82891 6.68325C6.24579 6.83909 5.05033 8.07631 4.92889 9.65951C4.83326 10.9062 4.75 12.6627 4.75 15.0002C4.75 16.6613 4.81048 18.1409 4.88741 19.3511C5.02361 21.494 6.69284 23.1458 8.83533 23.2693C10.3719 23.3579 12.4268 23.4321 15.0001 23.4321C17.5733 23.4321 19.6282 23.3579 21.1648 23.2693C23.3073 23.1458 24.9765 21.494 25.1127 19.3511C25.1897 18.1409 25.2501 16.6613 25.2501 15.0002C25.2501 14.0444 25.1949 13.1446 25.1228 12.3776C24.9743 10.7964 23.7493 9.57153 22.1682 9.42299C21.4011 9.35093 20.5014 9.29565 19.5456 9.29565H16.0507Z" fill="white" stroke="white" stroke-width="0.5"/>
</svg>
