<svg width="24" height="21" viewBox="0 0 24 21" fill="none" xmlns="http://www.w3.org/2000/svg">
<path d="M21.1944 2.61183C20.6836 2.10083 20.0772 1.69547 19.4097 1.41891C18.7423 1.14235 18.0269 1 17.3044 1C16.5819 1 15.8665 1.14235 15.199 1.41891C14.5316 1.69547 13.9251 2.10083 13.4144 2.61183L12.3544 3.67183L11.2944 2.61183C10.2627 1.58013 8.8634 1.00053 7.40437 1.00053C5.94533 1.00053 4.54606 1.58013 3.51437 2.61183C2.48267 3.64352 1.90308 5.04279 1.90308 6.50183C1.90308 7.96086 2.48267 9.36013 3.51437 10.3918L4.57437 11.4518L12.3544 19.2318L20.1344 11.4518L21.1944 10.3918C21.7054 9.88107 22.1107 9.27464 22.3873 8.60718C22.6638 7.93972 22.8062 7.22431 22.8062 6.50183C22.8062 5.77934 22.6638 5.06393 22.3873 4.39647C22.1107 3.72901 21.7054 3.12258 21.1944 2.61183Z" fill="#F46363" stroke="#F46363" stroke-width="2" stroke-linecap="round" stroke-linejoin="round"/>
</svg>
