<svg width="30" height="30" viewBox="0 0 30 30" fill="none" xmlns="http://www.w3.org/2000/svg">
    <path d="M20 8.82009C18.6739 7.49401 16.8754 6.74902 15 6.74902C13.1247 6.74902 11.3261 7.49401 10 8.82009C8.67394 10.1462 7.92896 11.9447 7.92896 13.8201C7.92896 15.6955 8.67394 17.494 10 18.8201L14.3917 23.2201C14.4692 23.2982 14.5613 23.3602 14.6629 23.4025C14.7644 23.4448 14.8733 23.4666 14.9834 23.4666C15.0934 23.4666 15.2023 23.4448 15.3038 23.4025C15.4054 23.3602 15.4976 23.2982 15.575 23.2201L20 18.7784C21.3206 17.4579 22.0624 15.6668 22.0624 13.7993C22.0624 11.9317 21.3206 10.1407 20 8.82009ZM18.8084 17.5868L15 21.4118L11.1917 17.5868C10.4393 16.8337 9.92709 15.8745 9.71977 14.8303C9.51245 13.7862 9.61935 12.704 10.0269 11.7207C10.4345 10.7373 11.1245 9.8968 12.0097 9.30549C12.8949 8.71418 13.9355 8.39858 15 8.39858C16.0645 8.39858 17.1052 8.71418 17.9903 9.30549C18.8755 9.8968 19.5655 10.7373 19.9731 11.7207C20.3807 12.704 20.4876 13.7862 20.2803 14.8303C20.073 15.8745 19.5607 16.8337 18.8084 17.5868ZM12.5 11.2618C11.8273 11.9366 11.4495 12.8506 11.4495 13.8034C11.4495 14.7563 11.8273 15.6703 12.5 16.3451C12.9998 16.8457 13.6363 17.1877 14.3297 17.3279C15.0231 17.4682 15.7425 17.4006 16.3976 17.1336C17.0527 16.8665 17.6143 16.412 18.0121 15.827C18.4098 15.2419 18.626 14.5525 18.6334 13.8451C18.6371 13.3728 18.5461 12.9045 18.3658 12.4679C18.1854 12.0314 17.9194 11.6354 17.5834 11.3034C17.2531 10.9656 16.8593 10.6964 16.4245 10.5113C15.9898 10.3263 15.5228 10.229 15.0504 10.2251C14.5779 10.2212 14.1094 10.3108 13.6717 10.4887C13.234 10.6667 12.8358 10.9294 12.5 11.2618ZM16.4084 15.1618C16.0926 15.4824 15.6752 15.6833 15.2276 15.7303C14.7801 15.7773 14.3301 15.6673 13.9546 15.4192C13.5791 15.1711 13.3015 14.8003 13.1692 14.3702C13.0369 13.94 13.0581 13.4773 13.2292 13.0611C13.4002 12.6448 13.7106 12.3009 14.1072 12.0882C14.5037 11.8755 14.9619 11.8071 15.4033 11.8948C15.8447 11.9824 16.2419 12.2207 16.5271 12.5689C16.8123 12.917 16.9677 13.3534 16.9667 13.8034C16.9546 14.3178 16.7388 14.8064 16.3667 15.1618H16.4084Z" fill="#3F8CFF" />
</svg>
    