<svg width="30" height="30" viewBox="0 0 30 30" fill="none" xmlns="http://www.w3.org/2000/svg">
<path d="M21.2222 11.8134L16.5556 7.61042C16.1278 7.21732 15.574 7 15 7C14.4261 7 13.8723 7.21732 13.4445 7.61042L8.77785 11.8134C8.5308 12.0404 8.33366 12.3188 8.19955 12.6302C8.06544 12.9416 7.99744 13.2787 8.00007 13.6192V20.6029C8.00007 21.2386 8.2459 21.8483 8.68349 22.2979C9.12107 22.7474 9.71456 23 10.3334 23H19.6667C20.2855 23 20.879 22.7474 21.3166 22.2979C21.7541 21.8483 22 21.2386 22 20.6029V13.6112C22.0015 13.2721 21.933 12.9365 21.7989 12.6266C21.6648 12.3166 21.4683 12.0395 21.2222 11.8134ZM16.5556 21.4019H13.4445V17.4067C13.4445 17.1948 13.5264 16.9915 13.6723 16.8417C13.8181 16.6918 14.016 16.6076 14.2223 16.6076H15.7778C15.9841 16.6076 16.1819 16.6918 16.3278 16.8417C16.4736 16.9915 16.5556 17.1948 16.5556 17.4067V21.4019ZM20.4444 20.6029C20.4444 20.8148 20.3625 21.018 20.2166 21.1679C20.0708 21.3177 19.8729 21.4019 19.6667 21.4019H18.1111V17.4067C18.1111 16.7709 17.8653 16.1612 17.4277 15.7117C16.9901 15.2621 16.3966 15.0096 15.7778 15.0096H14.2223C13.6034 15.0096 13.0099 15.2621 12.5723 15.7117C12.1348 16.1612 11.8889 16.7709 11.8889 17.4067V21.4019H10.3334C10.1271 21.4019 9.92928 21.3177 9.78342 21.1679C9.63756 21.018 9.55562 20.8148 9.55562 20.6029V13.6112C9.55576 13.4978 9.57941 13.3857 9.62501 13.2823C9.67061 13.179 9.7371 13.0868 9.82006 13.012L14.4867 8.81697C14.6286 8.68887 14.8111 8.61822 15 8.61822C15.189 8.61822 15.3714 8.68887 15.5134 8.81697L20.18 13.012C20.263 13.0868 20.3294 13.179 20.375 13.2823C20.4206 13.3857 20.4443 13.4978 20.4444 13.6112V20.6029Z" fill="#8F95B2"/>
</svg>