<svg width="32" height="32" viewBox="0 0 32 32" fill="none" xmlns="http://www.w3.org/2000/svg">
<path fill-rule="evenodd" clip-rule="evenodd" d="M14.9996 20.7809C14.9996 21.3332 15.4473 21.7809 15.9996 21.7809C16.5519 21.7809 16.9996 21.3332 16.9996 20.7809V8.52843L21.5782 13.107C21.9687 13.4976 22.6019 13.4976 22.9924 13.107C23.383 12.7165 23.383 12.0834 22.9924 11.6928L17.6495 6.34992C16.7383 5.4387 15.2609 5.4387 14.3497 6.34992L9.00678 11.6928C8.61626 12.0834 8.61626 12.7165 9.00678 13.107C9.39731 13.4976 10.0305 13.4976 10.421 13.107L14.9996 8.52843V20.7809ZM7.6665 20C7.6665 19.4477 7.21879 19 6.6665 19C6.11422 19 5.6665 19.4477 5.6665 20V24C5.6665 25.2886 6.71117 26.3333 7.99984 26.3333H23.9998C25.2885 26.3333 26.3332 25.2886 26.3332 24V20C26.3332 19.4477 25.8855 19 25.3332 19C24.7809 19 24.3332 19.4477 24.3332 20V24C24.3332 24.1841 24.1839 24.3333 23.9998 24.3333H7.99984C7.81574 24.3333 7.6665 24.1841 7.6665 24V20Z" fill="white"/>
</svg>
